<?xml version="1.0" encoding="utf-8"?>
<!-- Generator: Adobe Illustrator 25.0.0, SVG Export Plug-In . SVG Version: 6.00 Build 0)  -->
<svg version="1.1" id="Capa_1" xmlns="http://www.w3.org/2000/svg" xmlns:xlink="http://www.w3.org/1999/xlink" x="0px" y="0px"
	 viewBox="0 0 521.9 539" style="enable-background:new 0 0 521.9 539;" xml:space="preserve">
<style type="text/css">
	.st0{fill:#D6C9B8;}
	.st1{fill:#15485C;}
	.st2{fill:#512583;stroke:#000000;stroke-width:18;stroke-miterlimit:10;}
	.st3{fill:#D6C9B8;stroke:#D6C9B8;stroke-width:18;stroke-miterlimit:10;}
	.st4{fill:#BAA187;}
	.st5{fill:#DE092C;stroke:#FFFFFF;stroke-width:10;stroke-miterlimit:10;}
</style>
<path class="st0" d="M35.3,189.9c-17.7,0-32,14.3-32,32v192c0,53,43,96,96,96h192c53,0,96-43,96-96h16c61.9,0,112-50.1,112-112
	s-50.1-112-112-112h-48L35.3,189.9L35.3,189.9z M387.3,253.9h16c26.5,0,48,21.5,48,48s-21.5,48-48,48h-16V253.9z M282.7,57.7
	c0-10-6.5-18.1-14.5-18.1s-14.5,8.1-14.5,18.1c0,29.3,14.1,44.8,23.6,55.1l0.7,0.8c9.8,10.7,14.4,16.4,14.4,28.6
	c0,10,6.5,18.1,14.5,18.1s14.5-8.1,14.5-18.1c0-29.3-14.1-44.8-23.6-55.1l-0.7-0.8C287.3,75.6,282.7,69.8,282.7,57.7z M200.1,28.3
	c0-12.9-6.5-23.3-14.5-23.3c-8,0-14.5,10.4-14.5,23.3c0,37.7,14.1,57.6,23.6,70.9l0.7,1c9.8,13.8,14.4,21.2,14.4,36.8
	c0,12.9,6.5,23.3,14.5,23.3c8,0,14.5-10.4,14.5-23.3c0-37.7-14.1-57.6-23.6-70.9l-0.7-1C204.6,51.3,200.1,43.9,200.1,28.3z
	 M118,58.4c0-10.4-6.5-18.8-14.5-18.8S89,48,89,58.4c0,30.5,14.1,46.5,23.6,57.3l0.7,0.8c9.8,11.1,14.4,17.1,14.4,29.7
	c0,10.4,6.5,18.8,14.5,18.8c8,0,14.5-8.4,14.5-18.8c0-30.5-14.1-46.5-23.6-57.3l-0.7-0.8C122.5,77,118,71,118,58.4z"/>
<path class="st1" d="M207.3,568"/>
<path class="st2" d="M237.8,564"/>
<polyline class="st3" points="375.7,526.1 301.5,526.1 26.9,526.1 "/>
<g>
	<g>
		<g>
			<path class="st4" d="M72.6,308.2c1.2,0.6,1.8,1.5,2,2.7c0.2,1.2-0.1,2.3-1,3.3c-0.6,0.8-1.3,1.3-2.2,1.4
				c-0.9,0.1-1.8-0.1-2.8-0.6c-1.5-0.8-3.1-1.4-4.8-1.9c-1.7-0.5-3.5-0.7-5.3-0.7c-3,0-5.7,0.5-8.1,1.5c-2.4,1-4.5,2.4-6.2,4.2
				c-1.7,1.8-3.1,3.9-4,6.4c-0.9,2.5-1.4,5.2-1.4,8.2c0,3.3,0.5,6.3,1.5,8.8c1,2.6,2.4,4.7,4.1,6.5c1.8,1.8,3.8,3.1,6.2,4
				c2.4,0.9,5,1.3,7.8,1.3c1.8,0,3.5-0.2,5.3-0.6c1.7-0.4,3.3-1.1,4.9-1.9c0.9-0.5,1.9-0.6,2.8-0.5c0.9,0.1,1.7,0.6,2.3,1.4
				c0.8,1.1,1.2,2.2,0.9,3.4c-0.2,1.2-0.9,2-2,2.5c-1.3,0.7-2.8,1.4-4.3,1.9c-1.6,0.6-3.2,1-4.8,1.3c-1.6,0.3-3.3,0.4-5,0.4
				c-3.8,0-7.4-0.6-10.8-1.9c-3.4-1.3-6.4-3.1-9-5.5c-2.6-2.4-4.7-5.4-6.2-8.9c-1.5-3.5-2.3-7.6-2.3-12.1c0-4.1,0.7-7.8,2.1-11.2
				c1.4-3.4,3.4-6.4,6-8.9c2.6-2.5,5.5-4.5,9-5.9c3.4-1.4,7.2-2.1,11.2-2.1c2.5,0,5,0.3,7.4,0.9C68.3,306.2,70.5,307.1,72.6,308.2z"
				/>
			<path class="st4" d="M133.9,332.7c0,4-0.7,7.7-2,11.2c-1.3,3.5-3.2,6.5-5.6,9c-2.4,2.6-5.2,4.6-8.5,6c-3.3,1.4-6.8,2.2-10.7,2.2
				c-3.9,0-7.5-0.7-10.7-2.2c-3.2-1.4-6.1-3.5-8.5-6c-2.4-2.6-4.3-5.6-5.6-9c-1.3-3.4-2-7.2-2-11.2c0-4,0.7-7.7,2-11.2
				c1.3-3.4,3.2-6.5,5.6-9c2.4-2.6,5.2-4.6,8.5-6c3.2-1.4,6.8-2.2,10.7-2.2c3.9,0,7.5,0.7,10.7,2.2c3.3,1.4,6.1,3.5,8.5,6
				c2.4,2.6,4.3,5.6,5.6,9C133.3,325,133.9,328.7,133.9,332.7z M125.4,332.7c0-3.9-0.8-7.4-2.4-10.5c-1.6-3.1-3.7-5.6-6.4-7.3
				c-2.7-1.8-5.9-2.7-9.4-2.7c-3.5,0-6.7,0.9-9.4,2.7c-2.7,1.8-4.9,4.2-6.4,7.3c-1.5,3.1-2.3,6.6-2.3,10.5c0,3.9,0.8,7.4,2.3,10.5
				c1.5,3.1,3.7,5.6,6.4,7.3c2.7,1.8,5.9,2.7,9.4,2.7c3.6,0,6.7-0.9,9.4-2.7c2.7-1.8,4.9-4.2,6.4-7.3
				C124.6,340.1,125.4,336.6,125.4,332.7z"/>
			<path class="st4" d="M147.8,360.4c-1.3,0-2.3-0.4-3-1.1c-0.8-0.8-1.1-1.7-1.1-2.9v-47.2c0-1.2,0.4-2.1,1.1-2.9
				c0.8-0.8,1.7-1.1,2.9-1.1h26.7c1.1,0,2.1,0.4,2.8,1.1c0.8,0.7,1.2,1.7,1.2,2.8c0,1-0.4,1.9-1.2,2.6c-0.8,0.7-1.7,1.1-2.8,1.1
				h-23.1l0.6-0.8v17.6l-0.5-0.9h19.4c1.1,0,2.1,0.4,2.8,1.1c0.8,0.7,1.2,1.7,1.2,2.8c0,0.9-0.4,1.8-1.2,2.6
				c-0.8,0.8-1.7,1.1-2.8,1.1h-19.6l0.6-0.7v20.9c0,1.2-0.4,2.1-1.2,2.9C149.9,360,149,360.4,147.8,360.4z"/>
			<path class="st4" d="M192.3,360.4c-1.3,0-2.3-0.4-3-1.1c-0.8-0.8-1.1-1.7-1.1-2.9v-47.2c0-1.2,0.4-2.1,1.1-2.9
				c0.8-0.8,1.7-1.1,2.9-1.1h26.7c1.1,0,2.1,0.4,2.8,1.1c0.8,0.7,1.2,1.7,1.2,2.8c0,1-0.4,1.9-1.2,2.6c-0.8,0.7-1.7,1.1-2.8,1.1
				h-23.1l0.6-0.8v17.6l-0.5-0.9h19.4c1.1,0,2.1,0.4,2.8,1.1c0.8,0.7,1.2,1.7,1.2,2.8c0,0.9-0.4,1.8-1.2,2.6
				c-0.8,0.8-1.7,1.1-2.8,1.1h-19.6l0.6-0.7v20.9c0,1.2-0.4,2.1-1.2,2.9C194.4,360,193.4,360.4,192.3,360.4z"/>
			<path class="st4" d="M236.6,305.1h27.3c1.2,0,2.1,0.4,2.9,1.1c0.8,0.7,1.1,1.7,1.1,2.8c0,1.1-0.4,2-1.1,2.7c-0.8,0.7-1.7,1-2.9,1
				h-23.8l0.8-1.3V329l-0.7-0.8h20.1c1.2,0,2.1,0.4,2.9,1.1c0.8,0.7,1.1,1.7,1.1,2.8c0,1.1-0.4,2-1.1,2.7c-0.8,0.7-1.7,1-2.9,1h-20
				l0.6-0.7v18.2l-0.6-0.6h23.5c1.2,0,2.1,0.4,2.9,1.1c0.8,0.8,1.1,1.6,1.1,2.6c0,1.1-0.4,2-1.1,2.7c-0.8,0.7-1.7,1.1-2.9,1.1h-27.3
				c-1.2,0-2.1-0.4-2.9-1.1c-0.8-0.8-1.1-1.7-1.1-2.9v-47.2c0-1.2,0.4-2.1,1.1-2.9C234.5,305.4,235.5,305.1,236.6,305.1z"/>
			<path class="st4" d="M281.8,305.1H309c1.2,0,2.1,0.4,2.9,1.1c0.8,0.7,1.1,1.7,1.1,2.8c0,1.1-0.4,2-1.1,2.7c-0.8,0.7-1.7,1-2.9,1
				h-23.8l0.8-1.3V329l-0.7-0.8h20.1c1.2,0,2.1,0.4,2.9,1.1c0.8,0.7,1.1,1.7,1.1,2.8c0,1.1-0.4,2-1.1,2.7c-0.8,0.7-1.7,1-2.9,1h-20
				l0.6-0.7v18.2l-0.6-0.6H309c1.2,0,2.1,0.4,2.9,1.1c0.8,0.8,1.1,1.6,1.1,2.6c0,1.1-0.4,2-1.1,2.7c-0.8,0.7-1.7,1.1-2.9,1.1h-27.3
				c-1.2,0-2.1-0.4-2.9-1.1c-0.8-0.8-1.1-1.7-1.1-2.9v-47.2c0-1.2,0.4-2.1,1.1-2.9C279.6,305.4,280.6,305.1,281.8,305.1z"/>
			<path class="st4" d="M339.8,361.1c-3.8,0-7.2-0.5-10.1-1.5c-3-1-5.8-2.8-8.5-5.2c-0.6-0.5-1-1-1.3-1.6c-0.3-0.6-0.4-1.2-0.4-1.9
				c0-1,0.4-1.9,1.1-2.7s1.7-1.2,2.8-1.2c0.8,0,1.6,0.3,2.4,0.9c2,1.8,4.1,3.2,6.3,4.2c2.2,0.9,4.8,1.4,7.7,1.4c2.1,0,4-0.3,5.8-1
				c1.8-0.7,3.2-1.6,4.2-2.8c1.1-1.2,1.6-2.5,1.6-4c-0.1-1.9-0.6-3.4-1.7-4.7c-1.1-1.2-2.6-2.2-4.6-3.1c-2-0.8-4.5-1.5-7.3-2.1
				c-2.6-0.5-5-1.2-7.1-2.1c-2.1-0.8-3.9-1.9-5.3-3.2c-1.4-1.3-2.6-2.8-3.4-4.6c-0.8-1.8-1.2-3.8-1.2-6.2c0-3.2,0.8-6,2.5-8.3
				c1.7-2.3,4-4.1,6.9-5.4c2.9-1.3,6.2-1.9,9.8-1.9c3.3,0,6.4,0.5,9.3,1.5c2.9,1,5.2,2.4,7,4.1c1.3,1.1,1.9,2.3,1.9,3.6
				c0,1-0.4,1.9-1.1,2.7c-0.8,0.8-1.6,1.2-2.6,1.2c-0.7,0-1.4-0.2-1.9-0.6c-0.8-0.9-2-1.7-3.4-2.4s-2.9-1.3-4.5-1.8
				s-3.1-0.7-4.6-0.7c-2.4,0-4.4,0.3-6.1,1c-1.7,0.7-3,1.6-3.9,2.7c-0.9,1.1-1.3,2.5-1.3,4.1c0,1.8,0.5,3.3,1.5,4.4
				c1,1.1,2.5,2.1,4.3,2.8c1.8,0.7,4,1.4,6.3,1.9c2.9,0.6,5.5,1.3,7.8,2.1s4.2,1.8,5.8,3c1.6,1.2,2.8,2.8,3.6,4.6
				c0.8,1.8,1.3,4.1,1.3,6.9c0,3.2-0.9,5.9-2.7,8.3c-1.8,2.4-4.1,4.2-7.1,5.5C346.7,360.5,343.4,361.1,339.8,361.1z"/>
		</g>
	</g>
</g>
<polyline class="st5" points="362.7,422.6 294,422.6 39.9,422.6 "/>
<polyline class="st5" points="362.7,379.9 294,379.9 39.9,379.9 "/>
</svg>
